<svg width="39" height="44" fill="none" xmlns="http://www.w3.org/2000/svg"><path d="M35.748 33.237c-3.448 3.053-7.946 4.895-12.854 4.895-10.294 0-18.009-8-18.009-17.144 0-8.599 6.834-15.62 15.306-15.62 7.996 0 13.765 6.22 13.765 12.954 0 6.313-4.964 11.434-11.062 11.434-5.579 0-9.517-4.24-9.517-8.768 0-4.063 3.133-7.244 6.817-7.244 3.26 0 5.273 2.385 5.273 4.578 0 1.904-1.335 3.054-2.573 3.054-.437 0-.604-.093-.78-.203a2.484 2.484 0 0 0 .496-1.88 2.448 2.448 0 0 0-2.776-2.079c-1.145.172-1.872.954-2.232 1.533a4.228 4.228 0 0 0-.624 2.24c0 3.232 3.001 5.321 5.916 5.321 4.259.003 7.461-3.729 7.461-7.986 0-5.21-4.5-9.51-10.161-9.51-6.574 0-11.705 5.585-11.705 12.176 0 7.468 6.346 13.697 14.408 13.697 8.913 0 15.95-7.446 15.95-16.366 0-9.588-8.09-17.883-18.653-17.883C8.957.436 0 9.732 0 20.988c0 12.018 10.055 22.076 22.897 22.076 6.143 0 11.778-2.314 16.078-6.121l-3.227-3.706ZM21.86 20.934c0-.005-.003-.002 0 0Z" fill="#000"/></svg>